<?xml version="1.0" encoding="utf-8"?>
<!-- Generator: Adobe Illustrator 25.0.0, SVG Export Plug-In . SVG Version: 6.00 Build 0)  -->
<svg version="1.1" id="katman_1" xmlns="http://www.w3.org/2000/svg" xmlns:xlink="http://www.w3.org/1999/xlink" x="0px" y="0px"
	 width="700px" height="700px" viewBox="0 0 700 700" style="enable-background:new 0 0 700 700;" xml:space="preserve">
<style type="text/css">
	.st0{fill:#FFFFFF;}
</style>
<g>
	<g>
		<path class="st0" d="M204.5,217.7c-3.1,3.6-5.2,7.5-6.3,12.3c-3.6,18-6.3,36-7.1,54.1c-0.2,6.3,2.3,10.2,8.4,12.1
			c19.9,6.5,39.7,13,59.6,19.4c4.6,1.5,8.8,0.8,12.8-2.1c22.8-16.7,45.6-33.2,68.4-49.8c3.6-2.7,5.4-6.1,5.4-10.7
			c0-10.5,0-20.9,0-31.4c0-10.7,0-21.5,0-32.2c-0.2-5.9-3.1-9.8-8.6-11.3c-6.3-1.7-12.8-3.6-19.2-4.6c-11.9-1.9-23.8-3.6-35.5-5.4
			c-4-0.6-7.5-0.2-11.1,1.3C245.7,181.1,223.5,197,204.5,217.7z"/>
		<path class="st0" d="M197.6,211.6c0.4-0.4,0.6-0.8,1-1.3c9.6-10.2,20.1-19.7,31.6-27.8c10.7-7.5,22.2-14.2,34.1-19.7
			c2.1-1,3.8-2.3,3.8-4.8c-0.2-4-3.8-5.9-7.9-4c-20.9,9.6-39.7,22.4-56.7,38c-4.4,4.2-8.6,8.6-12.8,13c-1.9,2.3-1.7,5.2,0.2,6.9
			C192.8,213.7,195.5,213.5,197.6,211.6z"/>
		<path class="st0" d="M291.5,413.1c-8.8-26.8-17.6-53.7-26.1-80.5c-1.5-4.6-4.2-7.3-8.6-8.8c-19.9-6.3-39.7-12.8-59.6-19.2
			c-6.5-2.1-10.9-0.6-14.6,5.2c-10.7,16.1-19.4,33.4-27.4,51c-0.6,1.5-0.8,3.3-1.3,5h0.2c0,0.8,0.2,1.7,0.2,2.5
			c2.7,27.8,10.9,53.7,24.5,78c2.5,4.8,5.9,8.6,10.9,11.3c15.5,8.8,31.4,16.7,48.1,23c6.5,2.5,10.9,1.3,15.1-4.8
			c12.1-16.9,24.2-33.7,36.6-50.4C292.3,421.7,292.9,417.7,291.5,413.1z"/>
		<path class="st0" d="M359.4,264.1c3.3,2.3,6.5,4.6,9.6,6.9c19.7,14.4,39.5,28.8,59.4,43.3c3.3,2.5,6.9,3.6,11.1,2.3
			c20.7-6.7,41.2-13.4,61.9-20.1c5-1.7,7.9-5.9,7.5-11.1c-0.4-8.4-1-16.7-2.1-25.1c-1.5-10.5-3.6-20.7-5.2-30.9
			c-0.4-3.3-1.5-6.1-3.6-8.6c-18.6-21.1-40.8-37.6-66.3-49.5c-4.6-2.3-9.2-3.3-14.6-2.7c-18.2,2.1-36,5-53.5,9.8
			c-6.3,1.7-9.2,5.6-9.2,12.1c0,10.5,0,20.9,0,31.4s0,21.1,0,32.2C354.4,258.2,356.1,261.6,359.4,264.1z"/>
		<path class="st0" d="M151.2,402.1c-2.3-9.4-3.6-18.8-5.2-28.2c-0.8-4-2.1-5.6-5.2-5.6c-3.3,0-5.2,2.3-4.8,5.6
			c1.9,16.3,5.6,32.4,11.1,47.9c4.2,11.9,9.4,23.2,15.7,34.3c2.1,3.8,5.4,4.2,8.2,1.5c2.1-2.1,1.3-4.2,0.2-6.3
			C162.3,435.7,155.4,419.4,151.2,402.1z"/>
		<path class="st0" d="M471,172.1c-10.2-7.1-20.9-13.2-32.2-18.2c-3.8-1.7-7.3,0.2-7.5,4c0,2.9,1.7,4.2,4,5.2
			c19.9,9.2,37.8,21.1,53.7,36c4.4,4,8.4,8.4,12.5,12.5c1.7,1.7,3.8,2.5,5.9,1.3c1.5-0.8,2.5-2.7,3.8-4.2c-1.3-1.9-1.9-3.3-3.1-4.6
			C497,192,484.6,181.3,471,172.1z"/>
		<path class="st0" d="M503.9,304.8c-20.5,6.7-40.8,13.2-61.3,19.9c-4,1.3-6.5,3.8-7.7,7.5c-9,27.6-17.8,55-26.8,82.4
			c-1,3.8-0.6,7.3,1.7,10.5c12.8,17.6,25.5,34.9,38.3,52.5c3.3,4.4,8.2,5.6,13.2,3.8c4-1.5,8.2-2.9,11.9-4.8
			c12.5-6.3,25.1-12.8,37.6-18.8c5-2.3,8.2-6.1,10.5-10.7c2.7-5.6,5.9-11.3,8.6-17.1c9-20.1,14.4-41.2,16.3-63.3
			c0-0.8,0.2-1.9-0.2-2.7c-0.8-2.3-1.9-4.4-2.7-6.5c-7.3-16.7-15.9-32.6-25.9-47.9C513.9,304.6,509.3,302.8,503.9,304.8z"/>
		<path class="st0" d="M390.8,551.5c-8.8,1.3-17.8,2.7-26.5,3.6c-18.6,1.5-37,0.2-55.2-3.6c-3.8-0.8-6.1,0.6-6.7,4
			c-0.4,2.7,1.3,4.8,4.8,5.4c14,2.7,28.2,4.2,42.6,4.4c5.4-0.2,11.1-0.2,16.5-0.8c9-1,18-2.3,27-3.8c4-0.6,5.4-4.2,3.6-7.3
			C395.4,551.1,393.3,551.1,390.8,551.5z"/>
		<path class="st0" d="M403.3,431.1c-2.7-4-6.5-5.9-11.3-5.9c-14,0-28,0-42,0c-14.2,0-28.4,0-42.6,0c-4.4,0-7.7,1.5-10.2,5
			c-12.5,17.4-25.3,34.7-37.8,52.1c-3.3,4.6-3.3,9.8,0.4,14c8.4,9.6,16.9,19,25.7,28.4c4.6,4.8,9.6,9.4,14.6,14
			c0.8,1,2.1,2.1,3.3,2.3c27.8,6.9,55.8,7.3,84,2.1c6.1-1.3,12.1-2.1,15.9-7.9c0.2-0.2,0.6-0.4,0.8-0.6c12.8-11.5,24.5-23.8,35.1-37
			c4.8-6.3,5-10.2,0.2-16.5C427.3,464.4,415.2,447.8,403.3,431.1z"/>
		<path class="st0" d="M528.7,451c-1,2.3-1.9,4.4,0,6.5c2.5,2.9,6.3,2.5,8.2-1c3.6-6.9,7.3-13.8,10.5-20.9
			c8.8-19.7,14-40.3,16.5-61.7c0.4-3.3-1.5-5.6-4.8-5.6c-3.1,0-4.6,1.5-5.2,5.6c-1.7,15.9-5,31.4-10.9,46.2
			C538.8,430.7,533.5,440.7,528.7,451z"/>
	</g>
	<path d="M347.9,125.9c-122.3,1-222.2,100.8-222,223.9c-0.4,124.2,101.4,225.4,226,224.3c122.3-1,222.4-101,222.2-224.3
		C573.9,225.8,472.7,124.6,347.9,125.9z M354.4,190.5c0-6.5,2.9-10.5,9.2-12.1c17.6-4.8,35.3-7.7,53.5-9.8c5.4-0.6,10,0.4,14.6,2.7
		c25.5,11.9,47.7,28.4,66.3,49.5c2.1,2.5,3.1,5.2,3.6,8.6c1.7,10.2,3.8,20.5,5.2,30.9c1,8.4,1.7,16.7,2.1,25.1
		c0.4,5.2-2.5,9.4-7.5,11.1c-20.7,6.7-41.2,13.4-61.9,20.1c-4.2,1.3-7.7,0.2-11.1-2.3c-19.9-14.4-39.7-28.8-59.4-43.3
		c-3.1-2.3-6.3-4.6-9.6-6.9c-3.3-2.5-5-5.9-5-10c0-11.1,0-21.7,0-32.2S354.4,200.9,354.4,190.5z M282.3,168.3
		c11.7,1.9,23.6,3.6,35.5,5.4c6.5,1,13,2.9,19.2,4.6c5.4,1.5,8.4,5.4,8.6,11.3c0,10.7,0,21.5,0,32.2c0,10.5,0,20.9,0,31.4
		c0,4.6-1.9,7.9-5.4,10.7c-22.8,16.5-45.6,33-68.4,49.8c-4,2.9-8.2,3.6-12.8,2.1c-19.9-6.5-39.7-13-59.6-19.4
		c-6.1-1.9-8.6-5.9-8.4-12.1c0.8-18.2,3.6-36.2,7.1-54.1c1-4.8,3.1-8.8,6.3-12.3c19-20.7,41.2-36.6,66.7-48.1
		C274.7,168.1,278.3,167.7,282.3,168.3z M190.7,205.1c4.2-4.4,8.4-8.8,12.8-13c16.9-15.7,35.7-28.4,56.7-38c4.2-1.9,7.7,0,7.9,4
		c0,2.5-1.7,3.8-3.8,4.8c-11.9,5.4-23.4,12.1-34.1,19.7c-11.5,8.2-22,17.6-31.6,27.8c-0.4,0.4-0.6,0.8-1,1.3
		c-2.1,1.9-4.8,2.1-6.7,0.4C189,210.4,188.8,207.4,190.7,205.1z M170.8,457.5c-2.7,2.7-6.1,2.3-8.2-1.5
		c-6.3-11.1-11.5-22.4-15.7-34.3c-5.4-15.5-9.2-31.6-11.1-47.9c-0.4-3.3,1.5-5.6,4.8-5.6c3.1,0,4.4,1.7,5.2,5.6
		c1.7,9.4,2.9,18.8,5.2,28.2c4.2,17.4,11.1,33.7,19.9,49.1C172.1,453.3,172.9,455.4,170.8,457.5z M237.7,480.7
		c-16.7-6.3-32.6-14.2-48.1-23c-5-2.7-8.4-6.5-10.9-11.3c-13.6-24.2-21.7-50.2-24.5-78c0-0.8-0.2-1.7-0.2-2.5h-0.2
		c0.4-1.7,0.6-3.6,1.3-5c7.9-17.6,16.7-34.9,27.4-51c3.8-5.9,8.2-7.3,14.6-5.2c19.9,6.5,39.7,13,59.6,19.2c4.4,1.5,7.1,4.2,8.6,8.8
		c8.6,26.8,17.4,53.7,26.1,80.5c1.5,4.6,0.8,8.6-2.1,12.3c-12.3,16.7-24.5,33.4-36.6,50.4C248.6,481.9,244.2,483.2,237.7,480.7z
		 M393.3,560.7c-9,1.5-18,2.7-27,3.8c-5.4,0.6-11.1,0.6-16.5,0.8c-14.4-0.2-28.6-1.7-42.6-4.4c-3.6-0.6-5.2-2.7-4.8-5.4
		c0.6-3.3,2.9-4.8,6.7-4c18.2,3.8,36.6,5,55.2,3.6c8.8-0.8,17.8-2.3,26.5-3.6c2.5-0.4,4.6-0.4,6.1,1.9
		C398.7,556.5,397.2,560.1,393.3,560.7z M439.3,497.6c-10.7,13.2-22.4,25.5-35.1,37c-0.2,0.2-0.6,0.4-0.8,0.6
		c-3.8,5.9-9.8,6.7-15.9,7.9c-28.2,5.2-56.2,4.8-84-2.1c-1.3-0.2-2.5-1.3-3.3-2.3c-5-4.6-10-9.2-14.6-14
		c-8.8-9.4-17.4-18.8-25.7-28.4c-3.8-4.2-3.8-9.4-0.4-14c12.5-17.4,25.3-34.7,37.8-52.1c2.5-3.6,5.9-5,10.2-5c14.2,0,28.4,0,42.6,0
		c14,0,28,0,42,0c4.8,0,8.6,1.9,11.3,5.9c11.9,16.7,24,33.2,36.2,50C444.3,487.3,444.1,491.3,439.3,497.6z M559.1,368.2
		c3.3,0,5.2,2.3,4.8,5.6c-2.5,21.3-7.7,42-16.5,61.7c-3.1,7.1-6.9,14-10.5,20.9c-1.9,3.6-5.6,4-8.2,1c-1.9-2.1-1-4.2,0-6.5
		c4.8-10.2,10-20.3,14.2-30.9c5.9-14.8,9.2-30.3,10.9-46.2C554.5,369.7,555.9,368.2,559.1,368.2z M517.2,309.4
		c10,15.3,18.6,31.1,25.9,47.9c0.8,2.1,1.9,4.2,2.7,6.5c0.4,0.8,0.2,1.9,0.2,2.7c-1.9,22.2-7.3,43.3-16.3,63.3
		c-2.7,5.9-5.9,11.5-8.6,17.1c-2.3,4.6-5.4,8.4-10.5,10.7c-12.5,6.1-25.1,12.5-37.6,18.8c-3.8,1.9-7.9,3.3-11.9,4.8
		c-5,1.9-9.8,0.6-13.2-3.8c-12.8-17.6-25.5-34.9-38.3-52.5c-2.3-3.1-2.7-6.7-1.7-10.5c9-27.4,17.8-54.8,26.8-82.4
		c1.3-3.8,3.8-6.3,7.7-7.5c20.5-6.7,40.8-13.2,61.3-19.9C509.3,302.8,513.9,304.6,517.2,309.4z M511.2,208.7
		c-1.3,1.5-2.3,3.3-3.8,4.2c-2.1,1.3-4.2,0.4-5.9-1.3c-4.2-4.2-8.2-8.6-12.5-12.5c-15.9-14.8-33.9-26.8-53.7-36c-2.3-1-4-2.3-4-5.2
		c0.2-3.8,3.8-5.6,7.5-4c11.3,5,22,11.1,32.2,18.2c13.6,9.2,25.9,19.9,37,32C509.3,205.3,509.9,206.8,511.2,208.7z"/>
</g>
</svg>
